#!OML:ASF G:\JayActor3\Patient Classification 1\Patient 1\Session 6\male.ASF
:FULLY-SPECIFIED
:DEGREES
676
root 38.2748 14.8635 8.01099 190.686 -46.9017 -182.427
lowerback 18.8464 0.0456873 0.897746
upperback 14.5246 -1.89643 -0.87209
thorax 5.1568 -1.66761 -1.24649
lowerneck 10.05 0.758778 3.02699
upperneck -20.851 1.25426 0.503554
head -8.09232 0.0761429 -0.430954
rclavicle -6.55989e-015 3.43897e-014
rhumerus -17.373 9.63719 -87.1942
rradius 82.1835
rwrist 10.1499
rhand -31.3764 -6.00407
rfingers 7.12502
rthumb -4.64658 -35.9331
lclavicle -6.55989e-015 3.43897e-014
lhumerus -8.42836 -7.50089 76.6642
lradius 82.9691
lwrist 16.0111
lhand -23.548 8.40494
lfingers 7.12502
lthumb 2.91392 38.3648
rfemur -48.3871 -2.51868 15.3132
rtibia 96.0492
rfoot 7.27895 -1.04449
rtoes -9.09295
lfemur -40.2058 5.13012 -32.0349
ltibia 54.5148
lfoot -23.1542 1.18534
ltoes 8.23822
677
root 38.2551 14.8628 7.99596 190.677 -46.8923 -182.501
lowerback 18.9005 0.0357204 0.846517
upperback 14.5541 -1.9257 -0.901104
thorax 5.16205 -1.68857 -1.2443
lowerneck 10.094 0.773725 3.00487
upperneck -20.9039 1.272 0.50264
head -8.11791 0.0845682 -0.429468
rclavicle 1.5207e-014 2.43511e-014
rhumerus -17.4274 9.56925 -87.2274
rradius 82.2049
rwrist 10.146
rhand -31.4369 -6.08289
rfingers 7.12502
rthumb -4.70499 -36.0106
lclavicle 1.5207e-014 2.43511e-014
lhumerus -8.26566 -7.50133 76.6141
lradius 83.07
lwrist 15.9602
lhand -23.4463 8.42455
lfingers 7.12502
lthumb 3.01208 38.383
rfemur -49.1329 -2.47705 15.1663
rtibia 96.3067
rfoot 6.5347 -1.84031
rtoes -9.25471
lfemur -40.0279 5.23465 -32.1032
ltibia 54.5133
lfoot -23.2654 0.947077
ltoes 9.13606
678
root 38.2357 14.861 7.98102 190.673 -46.887 -182.576
lowerback 18.9519 0.0235799 0.798471
upperback 14.5833 -1.9572 -0.929461
thorax 5.16833 -1.71033 -1.24294
lowerneck 10.1358 0.789836 2.98149
upperneck -20.9544 1.29034 0.498218
head -8.14224 0.0938443 -0.429006
rclavicle 3.55825e-014 -5.20816e-014
rhumerus -17.4814 9.50093 -87.2578
rradius 82.2267
rwrist 10.1414
rhand -31.4941 -6.16371
rfingers 7.12502
rthumb -4.7602 -36.0902
lclavicle 3.55825e-014 -5.20816e-014
lhumerus -8.102 -7.50131 76.5706
lradius 83.162
lwrist 15.9151
lhand -23.3571 8.43002
lfingers 7.12502
lthumb 3.09827 38.3873
rfemur -49.8799 -2.42026 15.0266
rtibia 96.4968
rfoot 5.76427 -2.5844
rtoes -9.34204
lfemur -39.8501 5.3131 -32.1708
ltibia 54.5131
lfoot -23.3893 0.785806
ltoes 9.76849
679
root 38.2165 14.8589 7.96611 190.67 -46.8827 -182.644
lowerback 18.9988 0.0122093 0.759255
upperback 14.6124 -1.98628 -0.958168
thorax 5.1768 -1.73002 -1.24737
lowerneck 10.1725 0.802287 2.96762
upperneck -21.0015 1.30442 0.490765
head -8.16451 0.100724 -0.430702
rclavicle -7.15625e-015 -2.44505e-014
rhumerus -17.5323 9.4269 -87.2883
rradius 82.2459
rwrist 10.1311
rhand -31.5477 -6.24016
rfingers 7.12502
rthumb -4.81201 -36.1655
lclavicle -7.15625e-015 -2.44505e-014
lhumerus -7.93017 -7.50965 76.5287
lradius 83.2404
lwrist 15.8782
lhand -23.2784 8.42382
lfingers 7.12502
lthumb 3.17423 38.3799
rfemur -50.6269 -2.34197 14.9
rtibia 96.6104
rfoot 4.98889 -3.25798
rtoes -9.28716
lfemur -39.6799 5.36726 -32.2292
ltibia 54.5163
lfoot -23.5147 0.690357
ltoes 10.1629
680
root 38.1974 14.8564 7.95108 190.661 -46.8714 -182.702
lowerback 19.0429 0.00447686 0.726714
upperback 14.6441 -2.01034 -0.986997
thorax 5.18961 -1.74684 -1.2566
lowerneck 10.2048 0.813618 2.96199
upperneck -21.0456 1.31723 0.4784
head -8.18491 0.106923 -0.435276
rclavicle 6.57977e-014 3.18055e-014
rhumerus -17.5778 9.3523 -87.3185
rradius 82.2624
rwrist 10.1063
rhand -31.6083 -6.32345
rfingers 7.12502
rthumb -4.87056 -36.2475
lclavicle 6.57977e-014 3.18055e-014
lhumerus -7.75224 -7.52238 76.4893
lradius 83.3081
lwrist 15.8574
lhand -23.2104 8.39684
lfingers 7.12502
lthumb 3.23994 38.352
rfemur -51.3655 -2.2328 14.7865
rtibia 96.6421
rfoot 4.23077 -3.86066
rtoes -9.19767
lfemur -39.5098 5.40926 -32.2793
ltibia 54.5225
lfoot -23.6425 0.706286
ltoes 10.0851
681
root 38.1784 14.8541 7.93598 190.647 -46.8516 -182.748
lowerback 19.0867 0.000916629 0.698839
upperback 14.675 -2.0283 -1.01433
thorax 5.20191 -1.76029 -1.2677
lowerneck 10.2356 0.821901 2.96442
upperneck -21.0855 1.32644 0.461775
head -8.2036 0.111385 -0.442266
rclavicle 8.34896e-015 -2.22639e-014
rhumerus -17.6182 9.27846 -87.347
rradius 82.2711
rwrist 10.0674
rhand -31.6719 -6.39859
rfingers 7.12502
rthumb -4.9319 -36.3212
lclavicle 8.34896e-015 -2.22639e-014
lhumerus -7.57243 -7.53763 76.4529
lradius 83.3652
lwrist 15.8485
lhand -23.1406 8.34891
lfingers 7.12502
lthumb 3.30732 38.303
rfemur -52.0971 -2.09377 14.6884
rtibia 96.5877
rfoot 3.51503 -4.38808
rtoes -9.05529
lfemur -39.3442 5.44003 -32.318
ltibia 54.5319
lfoot -23.7656 0.742997
ltoes 9.97899
682
root 38.1591 14.8523 7.92078 190.62 -46.8192 -182.779
lowerback 19.133 0.00216549 0.678141
upperback 14.7056 -2.03931 -1.04142
thorax 5.2126 -1.76983 -1.28346
lowerneck 10.2684 0.831425 2.97101
upperneck -21.1219 1.33809 0.443161
head -8.22141 0.117069 -0.450889
rclavicle -2.5842e-015 -5.24792e-014
rhumerus -17.6551 9.20688 -87.3758
rradius 82.2728
rwrist 10.0134
rhand -31.7462 -6.47798
rfingers 7.12502
rthumb -5.0037 -36.3989
lclavicle -2.5842e-015 -5.24792e-014
lhumerus -7.39154 -7.55474 76.4181
lradius 83.4125
lwrist 15.8469
lhand -23.069 8.29335
lfingers 7.12502
lthumb 3.37647 38.2464
rfemur -52.8097 -1.91733 14.6061
rtibia 96.442
rfoot 2.84626 -4.84568
rtoes -8.9486
lfemur -39.1806 5.46275 -32.3428
ltibia 54.544
lfoot -23.8758 0.76696
ltoes 10.004
683
root 38.14 14.8509 7.90555 190.59 -46.7776 -182.802
lowerback 19.1814 0.00625711 0.656695
upperback 14.7331 -2.04634 -1.06552
thorax 5.21903 -1.77748 -1.29598
lowerneck 10.3026 0.840305 2.97962
upperneck -21.1519 1.34844 0.418863
head -8.23733 0.122897 -0.461652
rclavicle -1.21259e-014 -2.32578e-014
rhumerus -17.6929 9.14386 -87.3999
rradius 82.2704
rwrist 9.94472
rhand -31.8207 -6.56371
rfingers 7.12502
rthumb -5.0756 -36.4829
lclavicle -1.21259e-014 -2.32578e-014
lhumerus -7.2162 -7.56498 76.3906
lradius 83.4525
lwrist 15.8482
lhand -22.9895 8.23001
lfingers 7.12502
lthumb 3.45327 38.1818
rfemur -53.5069 -1.70934 14.5351
rtibia 96.2111
rfoot 2.22734 -5.23126
rtoes -8.85322
lfemur -39.0232 5.47719 -32.3601
ltibia 54.5586
lfoot -23.9745 0.812101
ltoes 10.0045
684
root 38.1207 14.8496 7.89033 190.554 -46.7259 -182.817
lowerback 19.2304 0.0105619 0.636363
upperback 14.7589 -2.0529 -1.08832
thorax 5.22321 -1.78487 -1.30772
lowerneck 10.3379 0.852951 2.9852
upperneck -21.1784 1.36259 0.389114
head -8.25211 0.131539 -0.474136
rclavicle -1.39149e-014 3.4191e-014
rhumerus -17.728 9.09231 -87.4199
rradius 82.2633
rwrist 9.85283
rhand -31.8785 -6.62855
rfingers 7.12502
rthumb -5.13139 -36.5464
lclavicle -1.39149e-014 3.4191e-014
lhumerus -7.04611 -7.56256 76.3667
lradius 83.4873
lwrist 15.8503
lhand -22.9031 8.16971
lfingers 7.12502
lthumb 3.53669 38.1201
rfemur -54.1888 -1.47534 14.474
rtibia 95.8992
rfoot 1.65623 -5.54729
rtoes -8.82205
lfemur -38.8702 5.48147 -32.3717
ltibia 54.5747
lfoot -24.0718 0.898251
ltoes 9.93885
